<svg xmlns="http://www.w3.org/2000/svg" xmlns:xlink="http://www.w3.org/1999/xlink" contentStyleType="text/css" height="852px" preserveAspectRatio="none" style="width:1649px;height:852px;background:#FFFFFF;" version="1.1" viewBox="0 0 1649 852" width="1649px" zoomAndPan="magnify"><defs/><g><line style="stroke:#181818;stroke-width:0.5;stroke-dasharray:5.0,5.0;" x1="38" x2="38" y1="81.2969" y2="771.3516"/><line style="stroke:#181818;stroke-width:0.5;stroke-dasharray:5.0,5.0;" x1="100" x2="100" y1="81.2969" y2="771.3516"/><line style="stroke:#181818;stroke-width:0.5;stroke-dasharray:5.0,5.0;" x1="328.5" x2="328.5" y1="81.2969" y2="771.3516"/><line style="stroke:#181818;stroke-width:0.5;stroke-dasharray:5.0,5.0;" x1="573.5" x2="573.5" y1="81.2969" y2="771.3516"/><line style="stroke:#181818;stroke-width:0.5;stroke-dasharray:5.0,5.0;" x1="798.5" x2="798.5" y1="81.2969" y2="771.3516"/><line style="stroke:#181818;stroke-width:0.5;stroke-dasharray:5.0,5.0;" x1="975.5" x2="975.5" y1="81.2969" y2="771.3516"/><line style="stroke:#181818;stroke-width:0.5;stroke-dasharray:5.0,5.0;" x1="1191" x2="1191" y1="81.2969" y2="771.3516"/><line style="stroke:#181818;stroke-width:0.5;stroke-dasharray:5.0,5.0;" x1="1376" x2="1376" y1="81.2969" y2="771.3516"/><line style="stroke:#181818;stroke-width:0.5;stroke-dasharray:5.0,5.0;" x1="1557" x2="1557" y1="81.2969" y2="771.3516"/><text fill="#000000" font-family="sans-serif" font-size="14" lengthAdjust="spacing" textLength="60" x="5" y="77.9951">Miembro</text><ellipse cx="38" cy="13.5" fill="#E2E2F0" rx="8" ry="8" style="stroke:#181818;stroke-width:0.5;"/><path d="M38,21.5 L38,48.5 M25,29.5 L51,29.5 M38,48.5 L25,63.5 M38,48.5 L51,63.5 " fill="none" style="stroke:#181818;stroke-width:0.5;"/><text fill="#000000" font-family="sans-serif" font-size="14" lengthAdjust="spacing" textLength="60" x="5" y="783.3467">Miembro</text><ellipse cx="38" cy="795.1484" fill="#E2E2F0" rx="8" ry="8" style="stroke:#181818;stroke-width:0.5;"/><path d="M38,803.1484 L38,830.1484 M25,811.1484 L51,811.1484 M38,830.1484 L25,845.1484 M38,830.1484 L51,845.1484 " fill="none" style="stroke:#181818;stroke-width:0.5;"/><text fill="#000000" font-family="sans-serif" font-size="14" lengthAdjust="spacing" textLength="33" x="81" y="77.9951">L&#237;der</text><ellipse cx="100.5" cy="13.5" fill="#E2E2F0" rx="8" ry="8" style="stroke:#181818;stroke-width:0.5;"/><path d="M100.5,21.5 L100.5,48.5 M87.5,29.5 L113.5,29.5 M100.5,48.5 L87.5,63.5 M100.5,48.5 L113.5,63.5 " fill="none" style="stroke:#181818;stroke-width:0.5;"/><text fill="#000000" font-family="sans-serif" font-size="14" lengthAdjust="spacing" textLength="33" x="81" y="783.3467">L&#237;der</text><ellipse cx="100.5" cy="795.1484" fill="#E2E2F0" rx="8" ry="8" style="stroke:#181818;stroke-width:0.5;"/><path d="M100.5,803.1484 L100.5,830.1484 M87.5,811.1484 L113.5,811.1484 M100.5,830.1484 L87.5,845.1484 M100.5,830.1484 L113.5,845.1484 " fill="none" style="stroke:#181818;stroke-width:0.5;"/><rect fill="#E2E2F0" height="30.2969" rx="2.5" ry="2.5" style="stroke:#181818;stroke-width:0.5;" width="150" x="253.5" y="50"/><text fill="#000000" font-family="sans-serif" font-size="14" lengthAdjust="spacing" textLength="136" x="260.5" y="69.9951">GestorDeProyectos</text><rect fill="#E2E2F0" height="30.2969" rx="2.5" ry="2.5" style="stroke:#181818;stroke-width:0.5;" width="150" x="253.5" y="770.3516"/><text fill="#000000" font-family="sans-serif" font-size="14" lengthAdjust="spacing" textLength="136" x="260.5" y="790.3467">GestorDeProyectos</text><rect fill="#E2E2F0" height="30.2969" rx="2.5" ry="2.5" style="stroke:#181818;stroke-width:0.5;" width="110" x="518.5" y="50"/><text fill="#000000" font-family="sans-serif" font-size="14" lengthAdjust="spacing" textLength="96" x="525.5" y="69.9951">BaseDeDatos</text><rect fill="#E2E2F0" height="30.2969" rx="2.5" ry="2.5" style="stroke:#181818;stroke-width:0.5;" width="110" x="518.5" y="770.3516"/><text fill="#000000" font-family="sans-serif" font-size="14" lengthAdjust="spacing" textLength="96" x="525.5" y="790.3467">BaseDeDatos</text><rect fill="#E2E2F0" height="30.2969" rx="2.5" ry="2.5" style="stroke:#181818;stroke-width:0.5;" width="150" x="723.5" y="50"/><text fill="#000000" font-family="sans-serif" font-size="14" lengthAdjust="spacing" textLength="136" x="730.5" y="69.9951">AsignadorDeTareas</text><rect fill="#E2E2F0" height="30.2969" rx="2.5" ry="2.5" style="stroke:#181818;stroke-width:0.5;" width="150" x="723.5" y="770.3516"/><text fill="#000000" font-family="sans-serif" font-size="14" lengthAdjust="spacing" textLength="136" x="730.5" y="790.3467">AsignadorDeTareas</text><rect fill="#E2E2F0" height="30.2969" rx="2.5" ry="2.5" style="stroke:#181818;stroke-width:0.5;" width="185" x="883.5" y="50"/><text fill="#000000" font-family="sans-serif" font-size="14" lengthAdjust="spacing" textLength="171" x="890.5" y="69.9951">SistemaDeNotificaciones</text><rect fill="#E2E2F0" height="30.2969" rx="2.5" ry="2.5" style="stroke:#181818;stroke-width:0.5;" width="185" x="883.5" y="770.3516"/><text fill="#000000" font-family="sans-serif" font-size="14" lengthAdjust="spacing" textLength="171" x="890.5" y="790.3467">SistemaDeNotificaciones</text><rect fill="#E2E2F0" height="30.2969" rx="2.5" ry="2.5" style="stroke:#181818;stroke-width:0.5;" width="180" x="1101" y="50"/><text fill="#000000" font-family="sans-serif" font-size="14" lengthAdjust="spacing" textLength="166" x="1108" y="69.9951">GestorDeTareasKanban</text><rect fill="#E2E2F0" height="30.2969" rx="2.5" ry="2.5" style="stroke:#181818;stroke-width:0.5;" width="180" x="1101" y="770.3516"/><text fill="#000000" font-family="sans-serif" font-size="14" lengthAdjust="spacing" textLength="166" x="1108" y="790.3467">GestorDeTareasKanban</text><rect fill="#E2E2F0" height="30.2969" rx="2.5" ry="2.5" style="stroke:#181818;stroke-width:0.5;" width="170" x="1291" y="50"/><text fill="#000000" font-family="sans-serif" font-size="14" lengthAdjust="spacing" textLength="156" x="1298" y="69.9951">CanalDeComunicaci&#243;n</text><rect fill="#E2E2F0" height="30.2969" rx="2.5" ry="2.5" style="stroke:#181818;stroke-width:0.5;" width="170" x="1291" y="770.3516"/><text fill="#000000" font-family="sans-serif" font-size="14" lengthAdjust="spacing" textLength="156" x="1298" y="790.3467">CanalDeComunicaci&#243;n</text><rect fill="#E2E2F0" height="30.2969" rx="2.5" ry="2.5" style="stroke:#181818;stroke-width:0.5;" width="172" x="1471" y="50"/><text fill="#000000" font-family="sans-serif" font-size="14" lengthAdjust="spacing" textLength="158" x="1478" y="69.9951">GeneradorDeReportes</text><rect fill="#E2E2F0" height="30.2969" rx="2.5" ry="2.5" style="stroke:#181818;stroke-width:0.5;" width="172" x="1471" y="770.3516"/><text fill="#000000" font-family="sans-serif" font-size="14" lengthAdjust="spacing" textLength="158" x="1478" y="790.3467">GeneradorDeReportes</text><polygon fill="#181818" points="316.5,108.4297,326.5,112.4297,316.5,116.4297,320.5,112.4297" style="stroke:#181818;stroke-width:1.0;"/><line style="stroke:#181818;stroke-width:1.0;" x1="100.5" x2="322.5" y1="112.4297" y2="112.4297"/><text fill="#000000" font-family="sans-serif" font-size="13" lengthAdjust="spacing" textLength="91" x="107.5" y="107.3638">CrearProyecto</text><polygon fill="#181818" points="561.5,137.5625,571.5,141.5625,561.5,145.5625,565.5,141.5625" style="stroke:#181818;stroke-width:1.0;"/><line style="stroke:#181818;stroke-width:1.0;" x1="328.5" x2="567.5" y1="141.5625" y2="141.5625"/><text fill="#000000" font-family="sans-serif" font-size="13" lengthAdjust="spacing" textLength="204" x="335.5" y="136.4966">GuardarInformaci&#243;nDelProyecto</text><polygon fill="#181818" points="339.5,166.6953,329.5,170.6953,339.5,174.6953,335.5,170.6953" style="stroke:#181818;stroke-width:1.0;"/><line style="stroke:#181818;stroke-width:1.0;" x1="333.5" x2="572.5" y1="170.6953" y2="170.6953"/><text fill="#000000" font-family="sans-serif" font-size="13" lengthAdjust="spacing" textLength="221" x="345.5" y="165.6294">Confirmaci&#243;nDeProyectoGuardado</text><polygon fill="#181818" points="111.5,195.8281,101.5,199.8281,111.5,203.8281,107.5,199.8281" style="stroke:#181818;stroke-width:1.0;"/><line style="stroke:#181818;stroke-width:1.0;" x1="105.5" x2="327.5" y1="199.8281" y2="199.8281"/><text fill="#000000" font-family="sans-serif" font-size="13" lengthAdjust="spacing" textLength="204" x="117.5" y="194.7622">Confirmaci&#243;nDeProyectoCreado</text><polygon fill="#181818" points="786.5,224.9609,796.5,228.9609,786.5,232.9609,790.5,228.9609" style="stroke:#181818;stroke-width:1.0;"/><line style="stroke:#181818;stroke-width:1.0;" x1="100.5" x2="792.5" y1="228.9609" y2="228.9609"/><text fill="#000000" font-family="sans-serif" font-size="13" lengthAdjust="spacing" textLength="84" x="107.5" y="223.895">AsignarTarea</text><polygon fill="#181818" points="584.5,254.0938,574.5,258.0938,584.5,262.0938,580.5,258.0938" style="stroke:#181818;stroke-width:1.0;"/><line style="stroke:#181818;stroke-width:1.0;" x1="578.5" x2="797.5" y1="258.0938" y2="258.0938"/><text fill="#000000" font-family="sans-serif" font-size="13" lengthAdjust="spacing" textLength="196" x="590.5" y="253.0278">GuardarInformaci&#243;nDeLaTarea</text><polygon fill="#181818" points="786.5,283.2266,796.5,287.2266,786.5,291.2266,790.5,287.2266" style="stroke:#181818;stroke-width:1.0;"/><line style="stroke:#181818;stroke-width:1.0;" x1="573.5" x2="792.5" y1="287.2266" y2="287.2266"/><text fill="#000000" font-family="sans-serif" font-size="13" lengthAdjust="spacing" textLength="201" x="580.5" y="282.1606">Confirmaci&#243;nDeTareaGuardada</text><polygon fill="#181818" points="964,312.3594,974,316.3594,964,320.3594,968,316.3594" style="stroke:#181818;stroke-width:1.0;"/><line style="stroke:#181818;stroke-width:1.0;" x1="798.5" x2="970" y1="316.3594" y2="316.3594"/><text fill="#000000" font-family="sans-serif" font-size="13" lengthAdjust="spacing" textLength="148" x="805.5" y="311.2935">NotificarADesarrollador</text><polygon fill="#181818" points="49,341.4922,39,345.4922,49,349.4922,45,345.4922" style="stroke:#181818;stroke-width:1.0;"/><line style="stroke:#181818;stroke-width:1.0;" x1="43" x2="975" y1="345.4922" y2="345.4922"/><text fill="#000000" font-family="sans-serif" font-size="13" lengthAdjust="spacing" textLength="169" x="55" y="340.4263">Notificaci&#243;nDeNuevaTarea</text><polygon fill="#181818" points="1179,370.625,1189,374.625,1179,378.625,1183,374.625" style="stroke:#181818;stroke-width:1.0;"/><line style="stroke:#181818;stroke-width:1.0;" x1="38" x2="1185" y1="374.625" y2="374.625"/><text fill="#000000" font-family="sans-serif" font-size="13" lengthAdjust="spacing" textLength="161" x="45" y="369.5591">ActualizarEstadoDeTarea</text><polygon fill="#181818" points="584.5,399.7578,574.5,403.7578,584.5,407.7578,580.5,403.7578" style="stroke:#181818;stroke-width:1.0;"/><line style="stroke:#181818;stroke-width:1.0;" x1="578.5" x2="1190" y1="403.7578" y2="403.7578"/><text fill="#000000" font-family="sans-serif" font-size="13" lengthAdjust="spacing" textLength="170" x="590.5" y="398.6919">GuardarEstadoActualizado</text><polygon fill="#181818" points="1179,428.8906,1189,432.8906,1179,436.8906,1183,432.8906" style="stroke:#181818;stroke-width:1.0;"/><line style="stroke:#181818;stroke-width:1.0;" x1="573.5" x2="1185" y1="432.8906" y2="432.8906"/><text fill="#000000" font-family="sans-serif" font-size="13" lengthAdjust="spacing" textLength="209" x="580.5" y="427.8247">Confirmaci&#243;nDeEstadoGuardado</text><polygon fill="#181818" points="987,458.0234,977,462.0234,987,466.0234,983,462.0234" style="stroke:#181818;stroke-width:1.0;"/><line style="stroke:#181818;stroke-width:1.0;" x1="981" x2="1190" y1="462.0234" y2="462.0234"/><text fill="#000000" font-family="sans-serif" font-size="13" lengthAdjust="spacing" textLength="191" x="993" y="456.9575">NotificarActualizaci&#243;nDeTarea</text><polygon fill="#181818" points="111.5,487.1563,101.5,491.1563,111.5,495.1563,107.5,491.1563" style="stroke:#181818;stroke-width:1.0;"/><line style="stroke:#181818;stroke-width:1.0;" x1="105.5" x2="975" y1="491.1563" y2="491.1563"/><text fill="#000000" font-family="sans-serif" font-size="13" lengthAdjust="spacing" textLength="230" x="117.5" y="486.0903">Notificaci&#243;nDeActualizaci&#243;nDeTarea</text><polygon fill="#181818" points="49,516.2891,39,520.2891,49,524.2891,45,520.2891" style="stroke:#181818;stroke-width:1.0;"/><line style="stroke:#181818;stroke-width:1.0;" x1="43" x2="975" y1="520.2891" y2="520.2891"/><text fill="#000000" font-family="sans-serif" font-size="13" lengthAdjust="spacing" textLength="230" x="55" y="515.2231">Notificaci&#243;nDeActualizaci&#243;nDeTarea</text><polygon fill="#181818" points="1364,545.4219,1374,549.4219,1364,553.4219,1368,549.4219" style="stroke:#181818;stroke-width:1.0;"/><line style="stroke:#181818;stroke-width:1.0;" x1="38" x2="1370" y1="549.4219" y2="549.4219"/><text fill="#000000" font-family="sans-serif" font-size="13" lengthAdjust="spacing" textLength="116" x="45" y="544.356">ComentarEnTarea</text><polygon fill="#181818" points="584.5,574.5547,574.5,578.5547,584.5,582.5547,580.5,578.5547" style="stroke:#181818;stroke-width:1.0;"/><line style="stroke:#181818;stroke-width:1.0;" x1="578.5" x2="1375" y1="578.5547" y2="578.5547"/><text fill="#000000" font-family="sans-serif" font-size="13" lengthAdjust="spacing" textLength="127" x="590.5" y="573.4888">GuardarComentario</text><polygon fill="#181818" points="1364,603.6875,1374,607.6875,1364,611.6875,1368,607.6875" style="stroke:#181818;stroke-width:1.0;"/><line style="stroke:#181818;stroke-width:1.0;" x1="573.5" x2="1370" y1="607.6875" y2="607.6875"/><text fill="#000000" font-family="sans-serif" font-size="13" lengthAdjust="spacing" textLength="240" x="580.5" y="602.6216">Confirmaci&#243;nDeComentarioGuardado</text><polygon fill="#181818" points="111.5,632.8203,101.5,636.8203,111.5,640.8203,107.5,636.8203" style="stroke:#181818;stroke-width:1.0;"/><line style="stroke:#181818;stroke-width:1.0;" x1="105.5" x2="1375" y1="636.8203" y2="636.8203"/><text fill="#000000" font-family="sans-serif" font-size="13" lengthAdjust="spacing" textLength="208" x="117.5" y="631.7544">Notificaci&#243;nDeComentarioNuevo</text><polygon fill="#181818" points="1545,661.9531,1555,665.9531,1545,669.9531,1549,665.9531" style="stroke:#181818;stroke-width:1.0;"/><line style="stroke:#181818;stroke-width:1.0;" x1="100.5" x2="1551" y1="665.9531" y2="665.9531"/><text fill="#000000" font-family="sans-serif" font-size="13" lengthAdjust="spacing" textLength="176" x="107.5" y="660.8872">GenerarReporteDeProyecto</text><polygon fill="#181818" points="584.5,691.0859,574.5,695.0859,584.5,699.0859,580.5,695.0859" style="stroke:#181818;stroke-width:1.0;"/><line style="stroke:#181818;stroke-width:1.0;" x1="578.5" x2="1556" y1="695.0859" y2="695.0859"/><text fill="#000000" font-family="sans-serif" font-size="13" lengthAdjust="spacing" textLength="204" x="590.5" y="690.02">ObtenerInformaci&#243;nDelProyecto</text><polygon fill="#181818" points="1545,720.2188,1555,724.2188,1545,728.2188,1549,724.2188" style="stroke:#181818;stroke-width:1.0;"/><line style="stroke:#181818;stroke-width:1.0;" x1="573.5" x2="1551" y1="724.2188" y2="724.2188"/><text fill="#000000" font-family="sans-serif" font-size="13" lengthAdjust="spacing" textLength="152" x="580.5" y="719.1528">Informaci&#243;nDelProyecto</text><polygon fill="#181818" points="111.5,749.3516,101.5,753.3516,111.5,757.3516,107.5,753.3516" style="stroke:#181818;stroke-width:1.0;"/><line style="stroke:#181818;stroke-width:1.0;" x1="105.5" x2="1556" y1="753.3516" y2="753.3516"/><text fill="#000000" font-family="sans-serif" font-size="13" lengthAdjust="spacing" textLength="113" x="117.5" y="748.2856">ReporteGenerado</text><!--SRC=[bLHHJiCm3FtFANQ1NQ0VaqOpJOWn4701h_LGf3OPJee4T-AB8-nYf4spBcdAjhywVi_Fzai3XL4qUnHOxqZDGCyuQY1ILGMb8WPTUdFyAP7QhFlYMAq-6d5GZ4K7yyKQjQLmV2RrXPQjivmGo8Tib9ylxa0ZHmujUDq0bK3tSg-eXa8SVwKjVcAVGPDIIkx5mFC9LxHCYaS3J9LeXoXJyowrU9VjhZY-WGNfp9rG5x5H-efnD-2umR1ZdQZJxhIVDAdxAhJ16ZXkbH5xKLYYagWp7z8oz7u2Fry4i6p8Tcri6_pi-sS1SF3BDVG0SWSoMnQcWKfy0wsqiRW-pLBWvEuSxLIcdBWaWMYqEbTYT4j2wSlhyosS6pAznVZYHNkyiTg_dgHhnVRa8A7YcAkwaPvhDrMZD7RBqf5IeAGjdYWYFoPK0Zy6xicJjEw57GvrsbkPVgqaaljDNl2Wo5X3tHdryV04i0Gu7FrfPrh8bO_NM7cAc1IEP-yp7li7]--></g></svg>