<svg xmlns="http://www.w3.org/2000/svg" xmlns:xlink="http://www.w3.org/1999/xlink" contentStyleType="text/css" height="339px" preserveAspectRatio="none" style="width:1348px;height:339px;background:#FFFFFF;" version="1.1" viewBox="0 0 1348 339" width="1348px" zoomAndPan="magnify"><defs/><g><!--cluster Herramienta para gesti?n de proyectos--><g id="cluster_Herramienta para gesti&#243;n de proyectos"><path d="M8.5,6 L320.5,6 A3.75,3.75 0 0 1 323,8.5 L330,28.2969 L1338.5,28.2969 A2.5,2.5 0 0 1 1341,30.7969 L1341,329.69 A2.5,2.5 0 0 1 1338.5,332.19 L8.5,332.19 A2.5,2.5 0 0 1 6,329.69 L6,8.5 A2.5,2.5 0 0 1 8.5,6 " fill="none" style="stroke:#000000;stroke-width:1.5;"/><line style="stroke:#000000;stroke-width:1.5;" x1="6" x2="330" y1="28.2969" y2="28.2969"/><text fill="#000000" font-family="sans-serif" font-size="14" font-weight="bold" lengthAdjust="spacing" textLength="311" x="10" y="20.9951">Herramienta para gesti&#243;n de proyectos</text></g><!--entity user--><g id="elem_user"><rect fill="#F1F1F1" height="46.2969" rx="2.5" ry="2.5" style="stroke:#181818;stroke-width:0.5;" width="92" x="656" y="41"/><rect fill="#F1F1F1" height="10" style="stroke:#181818;stroke-width:0.5;" width="15" x="728" y="46"/><rect fill="#F1F1F1" height="2" style="stroke:#181818;stroke-width:0.5;" width="4" x="726" y="48"/><rect fill="#F1F1F1" height="2" style="stroke:#181818;stroke-width:0.5;" width="4" x="726" y="52"/><text fill="#000000" font-family="sans-serif" font-size="14" lengthAdjust="spacing" textLength="52" x="671" y="73.9951">Usuario</text></g><!--entity db--><g id="elem_db"><rect fill="#F1F1F1" height="46.2969" rx="2.5" ry="2.5" style="stroke:#181818;stroke-width:0.5;" width="140" x="494" y="269.89"/><rect fill="#F1F1F1" height="10" style="stroke:#181818;stroke-width:0.5;" width="15" x="614" y="274.89"/><rect fill="#F1F1F1" height="2" style="stroke:#181818;stroke-width:0.5;" width="4" x="612" y="276.89"/><rect fill="#F1F1F1" height="2" style="stroke:#181818;stroke-width:0.5;" width="4" x="612" y="280.89"/><text fill="#000000" font-family="sans-serif" font-size="14" lengthAdjust="spacing" textLength="100" x="509" y="302.8851">Base de datos</text></g><!--entity kanban--><g id="elem_kanban"><rect fill="#F1F1F1" height="62.5938" rx="2.5" ry="2.5" style="stroke:#181818;stroke-width:0.5;" width="171" x="347.5" y="147.3"/><rect fill="#F1F1F1" height="10" style="stroke:#181818;stroke-width:0.5;" width="15" x="498.5" y="152.3"/><rect fill="#F1F1F1" height="2" style="stroke:#181818;stroke-width:0.5;" width="4" x="496.5" y="154.3"/><rect fill="#F1F1F1" height="2" style="stroke:#181818;stroke-width:0.5;" width="4" x="496.5" y="158.3"/><text fill="#000000" font-family="sans-serif" font-size="14" lengthAdjust="spacing" textLength="127" x="362.5" y="180.2951">Gesti&#243;n de Tareas</text><text fill="#000000" font-family="sans-serif" font-size="14" lengthAdjust="spacing" textLength="130" x="362.5" y="196.592">en Tablero Kanban</text></g><!--entity msj--><g id="elem_msj"><rect fill="#F1F1F1" height="46.2969" rx="2.5" ry="2.5" style="stroke:#181818;stroke-width:0.5;" width="200" x="872" y="155.45"/><rect fill="#F1F1F1" height="10" style="stroke:#181818;stroke-width:0.5;" width="15" x="1052" y="160.45"/><rect fill="#F1F1F1" height="2" style="stroke:#181818;stroke-width:0.5;" width="4" x="1050" y="162.45"/><rect fill="#F1F1F1" height="2" style="stroke:#181818;stroke-width:0.5;" width="4" x="1050" y="166.45"/><text fill="#000000" font-family="sans-serif" font-size="14" lengthAdjust="spacing" textLength="160" x="887" y="188.4451">Canal de comunicaci&#243;n</text></g><!--entity manager--><g id="elem_manager"><rect fill="#F1F1F1" height="46.2969" rx="2.5" ry="2.5" style="stroke:#181818;stroke-width:0.5;" width="218" x="1107" y="155.45"/><rect fill="#F1F1F1" height="10" style="stroke:#181818;stroke-width:0.5;" width="15" x="1305" y="160.45"/><rect fill="#F1F1F1" height="2" style="stroke:#181818;stroke-width:0.5;" width="4" x="1303" y="162.45"/><rect fill="#F1F1F1" height="2" style="stroke:#181818;stroke-width:0.5;" width="4" x="1303" y="166.45"/><text fill="#000000" font-family="sans-serif" font-size="14" lengthAdjust="spacing" textLength="178" x="1122" y="188.4451">Autentificaci&#243;n de usuario</text></g><!--entity tareas--><g id="elem_tareas"><rect fill="#F1F1F1" height="46.2969" rx="2.5" ry="2.5" style="stroke:#181818;stroke-width:0.5;" width="290" x="22" y="155.45"/><rect fill="#F1F1F1" height="10" style="stroke:#181818;stroke-width:0.5;" width="15" x="292" y="160.45"/><rect fill="#F1F1F1" height="2" style="stroke:#181818;stroke-width:0.5;" width="4" x="290" y="162.45"/><rect fill="#F1F1F1" height="2" style="stroke:#181818;stroke-width:0.5;" width="4" x="290" y="166.45"/><text fill="#000000" font-family="sans-serif" font-size="14" lengthAdjust="spacing" textLength="250" x="37" y="188.4451">Asignaci&#243;n y Seguimiento de Tareas</text></g><!--entity reportes--><g id="elem_reportes"><rect fill="#F1F1F1" height="46.2969" rx="2.5" ry="2.5" style="stroke:#181818;stroke-width:0.5;" width="283" x="553.5" y="155.45"/><rect fill="#F1F1F1" height="10" style="stroke:#181818;stroke-width:0.5;" width="15" x="816.5" y="160.45"/><rect fill="#F1F1F1" height="2" style="stroke:#181818;stroke-width:0.5;" width="4" x="814.5" y="162.45"/><rect fill="#F1F1F1" height="2" style="stroke:#181818;stroke-width:0.5;" width="4" x="814.5" y="166.45"/><text fill="#000000" font-family="sans-serif" font-size="14" lengthAdjust="spacing" textLength="243" x="568.5" y="188.4451">Reportes de Progreso del Proyecto</text></g><!--entity notificaciones--><g id="elem_notificaciones"><rect fill="#F1F1F1" height="46.2969" rx="2.5" ry="2.5" style="stroke:#181818;stroke-width:0.5;" width="217" x="84.5" y="269.89"/><rect fill="#F1F1F1" height="10" style="stroke:#181818;stroke-width:0.5;" width="15" x="281.5" y="274.89"/><rect fill="#F1F1F1" height="2" style="stroke:#181818;stroke-width:0.5;" width="4" x="279.5" y="276.89"/><rect fill="#F1F1F1" height="2" style="stroke:#181818;stroke-width:0.5;" width="4" x="279.5" y="280.89"/><text fill="#000000" font-family="sans-serif" font-size="14" lengthAdjust="spacing" textLength="177" x="99.5" y="302.8851">Sistema de Notificaciones</text></g><!--link user to kanban--><g id="link_user_kanban"><path d="M655.76,84.48 C614.75,101.62 559.6757,124.6458 512.0257,144.5658 " fill="none" id="user-to-kanban" style="stroke:#181818;stroke-width:1.0;"/><polygon fill="#181818" points="506.49,146.88,516.3364,147.0992,511.1031,144.9515,513.2508,139.7182,506.49,146.88" style="stroke:#181818;stroke-width:1.0;"/></g><!--link user to tareas--><g id="link_user_tareas"><path d="M655.92,74.84 C571.77,92.52 397.0517,129.246 280.4717,153.746 " fill="none" id="user-to-tareas" style="stroke:#181818;stroke-width:1.0;"/><polygon fill="#181818" points="274.6,154.98,284.2303,157.0435,279.4931,153.9517,282.585,149.2145,274.6,154.98" style="stroke:#181818;stroke-width:1.0;"/></g><!--link user to manager--><g id="link_user_manager"><path d="M748.38,74.54 C821.24,89.4 966.93,119.48 1090,147.3 C1100.75,149.73 1106.17,150.9637 1117.33,153.5937 " fill="none" id="user-to-manager" style="stroke:#181818;stroke-width:1.0;"/><polygon fill="#181818" points="1123.17,154.97,1115.3275,149.0122,1118.3033,153.8231,1113.4924,156.7989,1123.17,154.97" style="stroke:#181818;stroke-width:1.0;"/></g><!--link user to msj--><g id="link_user_msj"><path d="M748.41,84.48 C795.46,104.07 862.6512,132.053 912.3012,152.733 " fill="none" id="user-to-msj" style="stroke:#181818;stroke-width:1.0;"/><polygon fill="#181818" points="917.84,155.04,911.0698,147.887,913.2244,153.1175,907.9939,155.272,917.84,155.04" style="stroke:#181818;stroke-width:1.0;"/></g><!--link kanban to db--><g id="link_kanban_db"><path d="M468.8,210.32 C490.61,229.05 513.4566,248.6628 533.2566,265.6528 " fill="none" id="kanban-to-db" style="stroke:#181818;stroke-width:1.0;"/><polygon fill="#181818" points="537.81,269.56,533.5847,260.6636,534.0155,266.304,528.3751,266.7348,537.81,269.56" style="stroke:#181818;stroke-width:1.0;"/></g><!--link tareas to db--><g id="link_tareas_db"><path d="M246.86,202.22 C319.09,222.67 418.657,250.8751 487.797,270.4551 " fill="none" id="tareas-to-db" style="stroke:#181818;stroke-width:1.0;"/><polygon fill="#181818" points="493.57,272.09,486.0005,265.789,488.7592,270.7276,483.8206,273.4863,493.57,272.09" style="stroke:#181818;stroke-width:1.0;"/></g><!--link reportes to db--><g id="link_reportes_db"><path d="M668.81,202.08 C645.96,221.69 617.5324,246.0916 594.7024,265.6916 " fill="none" id="reportes-to-db" style="stroke:#181818;stroke-width:1.0;"/><polygon fill="#181818" points="590.15,269.6,599.5842,266.7724,593.9437,266.343,594.3731,260.7025,590.15,269.6" style="stroke:#181818;stroke-width:1.0;"/></g><!--link msj to db--><g id="link_msj_db"><path d="M889.93,202.22 C815,222.87 711.1844,251.4761 640.1644,271.0461 " fill="none" id="msj-to-db" style="stroke:#181818;stroke-width:1.0;"/><polygon fill="#181818" points="634.38,272.64,644.1192,274.1054,639.2003,271.3117,641.994,266.3928,634.38,272.64" style="stroke:#181818;stroke-width:1.0;"/></g><!--link tareas to notificaciones--><g id="link_tareas_notificaciones"><path d="M172.2,202.08 C176.73,221.69 181.9289,244.1541 186.4589,263.7541 " fill="none" id="tareas-to-notificaciones" style="stroke:#181818;stroke-width:1.0;"/><polygon fill="#181818" points="187.81,269.6,189.6806,259.9304,186.6841,264.7284,181.8861,261.7319,187.81,269.6" style="stroke:#181818;stroke-width:1.0;"/></g><!--link kanban to notificaciones--><g id="link_kanban_notificaciones"><path d="M367.42,210.32 C327.45,229.05 282.6934,250.0248 246.4234,267.0148 " fill="none" id="kanban-to-notificaciones" style="stroke:#181818;stroke-width:1.0;"/><polygon fill="#181818" points="240.99,269.56,250.8369,269.3645,245.5178,267.439,247.4433,262.1199,240.99,269.56" style="stroke:#181818;stroke-width:1.0;"/></g><!--SRC=[TL5BJiCm4Dtx5ADkkkeLa0f2824XH605B2RED7BhsC6VHOKu5KVWOimuTPjMOf5eFkyzlvbPDWGTROmZ80iZVcPA1Fm7xLqonFNaEn_1ykVRBIKVrOXwXpt1ufv2m85H2PaR47gAoVp-EDQ4CVWzQSOlu4i1lBt6ZC7u3y08ELAGsZL6UHywP5pfTAtKxsOwBnY86- -E7CUjfU3X0LsBhX1s9HJI3Jgqmj1-oCver29HG4FS2cAT4tirczeJS9xP6bYXdvoje-dT0RM7Xlfiog3-PAbGKWc5yKoZ3ucY09w2xmD50Lj9oY8AFXnGmcXCJ3IW41vzjUKTJShkhAI-bLhUEekwl62hRoMhXDNggYxYc1-S7VCwtAd0IvbhrllAwS4YjFFZg4c-4Fb6atZDwb0rP-KQ_lj0F0r_CUbC-w8pyt3U-GC0]--></g></svg>